<svg width="175" height="67" viewBox="0 0 175 67" fill="none" xmlns="http://www.w3.org/2000/svg">
<path d="M32.8516 53.675L16.6934 65.8948H0.429688V45.5657L16.5879 33.345H0.429688V13.0159L16.5879 0.796143H32.8516V21.1252L16.6934 33.345H32.8516V53.675Z" fill="#FF6000"/>
<path d="M174.571 46.2817L169.816 46.5744C169.735 46.168 169.56 45.8022 169.292 45.4771C169.023 45.1438 168.67 44.8797 168.231 44.6846C167.8 44.4814 167.284 44.3798 166.682 44.3798C165.878 44.3798 165.199 44.5505 164.646 44.8918C164.094 45.2251 163.817 45.6721 163.817 46.233C163.817 46.68 163.996 47.058 164.354 47.3668C164.711 47.6757 165.325 47.9236 166.195 48.1106L169.584 48.7933C171.405 49.1672 172.762 49.7687 173.656 50.5978C174.55 51.4268 174.997 52.516 174.997 53.8653C174.997 55.0926 174.636 56.1696 173.912 57.0962C173.197 58.0228 172.214 58.7462 170.962 59.2664C169.718 59.7784 168.284 60.0345 166.658 60.0345C164.179 60.0345 162.204 59.5183 160.733 58.4861C159.27 57.4457 158.412 56.0314 158.16 54.2432L163.269 53.975C163.423 54.7309 163.797 55.308 164.39 55.7063C164.984 56.0964 165.744 56.2915 166.67 56.2915C167.581 56.2915 168.312 56.1167 168.865 55.7672C169.426 55.4096 169.71 54.9503 169.718 54.3895C169.71 53.9181 169.511 53.532 169.121 53.2313C168.731 52.9224 168.129 52.6867 167.316 52.5241L164.073 51.8779C162.245 51.5122 160.883 50.8782 159.989 49.976C159.103 49.0737 158.66 47.9236 158.66 46.5256C158.66 45.3226 158.985 44.2863 159.635 43.4166C160.294 42.5469 161.216 41.8763 162.403 41.4049C163.598 40.9335 164.996 40.6978 166.597 40.6978C168.962 40.6978 170.824 41.1976 172.181 42.1974C173.547 43.1971 174.343 44.5586 174.571 46.2817Z" fill="#FF6000"/>
<path d="M129.363 59.6687V40.9416H134.313V44.2457H134.533C134.923 43.1484 135.573 42.2827 136.483 41.6487C137.394 41.0148 138.483 40.6978 139.751 40.6978C141.035 40.6978 142.128 41.0188 143.031 41.6609C143.933 42.2949 144.534 43.1565 144.835 44.2457H145.03C145.412 43.1728 146.103 42.3152 147.103 41.6731C148.111 41.0229 149.301 40.6978 150.675 40.6978C152.423 40.6978 153.841 41.2545 154.93 42.3681C156.027 43.4735 156.576 45.0422 156.576 47.0742V59.6687H151.394V48.0984C151.394 47.058 151.118 46.2777 150.565 45.7575C150.013 45.2373 149.322 44.9772 148.493 44.9772C147.55 44.9772 146.814 45.2779 146.286 45.8794C145.758 46.4728 145.493 47.2571 145.493 48.2325V59.6687H140.458V47.9886C140.458 47.0702 140.194 46.3386 139.666 45.7941C139.145 45.2495 138.459 44.9772 137.605 44.9772C137.028 44.9772 136.508 45.1235 136.045 45.4161C135.589 45.7006 135.228 46.1029 134.959 46.6231C134.691 47.1352 134.557 47.7367 134.557 48.4276V59.6687H129.363Z" fill="#FF6000"/>
<path d="M119.06 60.0345C117.134 60.0345 115.475 59.6443 114.086 58.864C112.704 58.0756 111.639 56.962 110.891 55.5234C110.143 54.0766 109.77 52.3656 109.77 50.3905C109.77 48.4641 110.143 46.7735 110.891 45.3186C111.639 43.8636 112.692 42.7298 114.049 41.917C115.414 41.1042 117.016 40.6978 118.853 40.6978C120.088 40.6978 121.238 40.8969 122.303 41.2952C123.376 41.6853 124.311 42.2746 125.107 43.063C125.912 43.8515 126.538 44.8431 126.985 46.0379C127.432 47.2246 127.655 48.6145 127.655 50.2076V51.6341H111.842V48.4154H122.766C122.766 47.6676 122.604 47.0051 122.279 46.4281C121.954 45.851 121.502 45.3998 120.925 45.0747C120.356 44.7415 119.694 44.5748 118.938 44.5748C118.15 44.5748 117.451 44.7577 116.841 45.1235C116.239 45.4811 115.768 45.9648 115.427 46.5744C115.085 47.1758 114.911 47.8464 114.902 48.5861V51.6463C114.902 52.5729 115.073 53.3735 115.414 54.0481C115.764 54.7228 116.256 55.243 116.89 55.6087C117.524 55.9745 118.276 56.1574 119.145 56.1574C119.722 56.1574 120.251 56.0761 120.73 55.9135C121.21 55.751 121.62 55.5071 121.962 55.182C122.303 54.8569 122.563 54.4586 122.742 53.9872L127.546 54.3042C127.302 55.4584 126.802 56.4662 126.046 57.3278C125.298 58.1813 124.331 58.8478 123.144 59.3273C121.966 59.7987 120.604 60.0345 119.06 60.0345Z" fill="#FF6000"/>
<path d="M109.032 40.9418V44.8433H97.7539V40.9418H109.032ZM100.314 36.4551H105.508V53.9142C105.508 54.3938 105.581 54.7677 105.728 55.0359C105.874 55.296 106.077 55.4789 106.337 55.5845C106.605 55.6902 106.914 55.743 107.264 55.743C107.508 55.743 107.751 55.7227 107.995 55.6821C108.239 55.6333 108.426 55.5967 108.556 55.5723L109.373 59.4372C109.113 59.5185 108.747 59.612 108.276 59.7177C107.804 59.8314 107.231 59.9005 106.557 59.9249C105.305 59.9737 104.208 59.8071 103.265 59.425C102.33 59.043 101.603 58.4497 101.082 57.645C100.562 56.8403 100.306 55.8243 100.314 54.597V36.4551Z" fill="#FF6000"/>
<path d="M97.059 46.2817L92.3041 46.5744C92.2228 46.168 92.0481 45.8022 91.7798 45.4771C91.5116 45.1438 91.1581 44.8797 90.7191 44.6846C90.2883 44.4814 89.7722 44.3798 89.1707 44.3798C88.3661 44.3798 87.6874 44.5505 87.1347 44.8918C86.5819 45.2251 86.3056 45.6721 86.3056 46.233C86.3056 46.68 86.4844 47.058 86.842 47.3668C87.1997 47.6757 87.8133 47.9236 88.6831 48.1106L92.0725 48.7933C93.8932 49.1672 95.2505 49.7687 96.1446 50.5978C97.0387 51.4268 97.4858 52.516 97.4858 53.8653C97.4858 55.0926 97.1241 56.1696 96.4007 57.0962C95.6854 58.0228 94.7019 58.7462 93.4502 59.2664C92.2066 59.7784 90.772 60.0345 89.1463 60.0345C86.6673 60.0345 84.6922 59.5183 83.221 58.4861C81.7579 57.4457 80.9004 56.0314 80.6484 54.2432L85.7569 53.975C85.9114 54.7309 86.2853 55.308 86.8786 55.7063C87.472 56.0964 88.2319 56.2915 89.1585 56.2915C90.0689 56.2915 90.8004 56.1167 91.3531 55.7672C91.914 55.4096 92.1984 54.9503 92.2066 54.3895C92.1984 53.9181 91.9993 53.532 91.6092 53.2313C91.219 52.9224 90.6175 52.6867 89.8047 52.5241L86.5616 51.8779C84.7328 51.5122 83.3713 50.8782 82.4773 49.976C81.5913 49.0737 81.1483 47.9236 81.1483 46.5256C81.1483 45.3226 81.4734 44.2863 82.1237 43.4166C82.7821 42.5469 83.7046 41.8763 84.8913 41.4049C86.0861 40.9335 87.4842 40.6978 89.0854 40.6978C91.4507 40.6978 93.312 41.1976 94.6694 42.1974C96.0349 43.1971 96.8315 44.5586 97.059 46.2817Z" fill="#FF6000"/>
<path d="M66.2565 66.6914C65.5981 66.6914 64.9804 66.6386 64.4033 66.5329C63.8343 66.4354 63.3629 66.3094 62.989 66.155L64.1594 62.2779C64.769 62.4648 65.3177 62.5664 65.8054 62.5827C66.3012 62.5989 66.7279 62.4851 67.0855 62.2413C67.4513 61.9975 67.748 61.5829 67.9756 60.9977L68.2804 60.2052L61.5625 40.9417H67.0246L70.9017 54.6944H71.0967L75.0104 40.9417H80.5091L73.2304 61.6926C72.8809 62.7005 72.4054 63.5784 71.8039 64.3262C71.2105 65.0821 70.4587 65.6632 69.5483 66.0696C68.638 66.4842 67.5407 66.6914 66.2565 66.6914Z" fill="#FF6000"/>
<path d="M55.8814 41.8805C55.7838 40.897 55.3652 40.1329 54.6256 39.5883C53.8859 39.0438 52.8821 38.7715 51.6141 38.7715C50.7526 38.7715 50.0251 38.8934 49.4317 39.1372C48.8384 39.3729 48.3832 39.7021 48.0662 40.1248C47.7574 40.5474 47.6029 41.027 47.6029 41.5635C47.5867 42.0105 47.6801 42.4007 47.8833 42.7339C48.0947 43.0672 48.3832 43.3557 48.749 43.5995C49.1148 43.8353 49.5374 44.0425 50.017 44.2213C50.4965 44.392 51.0086 44.5383 51.5532 44.6603L53.7965 45.1967C54.8857 45.4406 55.8854 45.7657 56.7958 46.1721C57.7061 46.5785 58.4946 47.0784 59.1611 47.6717C59.8276 48.2651 60.3437 48.9641 60.7095 49.7688C61.0834 50.5734 61.2744 51.496 61.2825 52.5364C61.2744 54.0644 60.8842 55.3893 60.112 56.511C59.348 57.6245 58.2426 58.4902 56.7958 59.1079C55.3571 59.7175 53.6218 60.0223 51.5898 60.0223C49.574 60.0223 47.8183 59.7135 46.3228 59.0957C44.8353 58.478 43.673 57.5636 42.8358 56.3525C42.0067 55.1333 41.5719 53.6255 41.5312 51.8292H46.6398C46.6966 52.6664 46.9364 53.3654 47.3591 53.9263C47.7899 54.479 48.3629 54.8976 49.0782 55.1821C49.8016 55.4584 50.6184 55.5966 51.5288 55.5966C52.4229 55.5966 53.1991 55.4665 53.8575 55.2064C54.524 54.9463 55.0401 54.5846 55.4059 54.1213C55.7717 53.658 55.9545 53.1257 55.9545 52.5242C55.9545 51.9633 55.7879 51.4919 55.4547 51.1099C55.1295 50.7279 54.65 50.4027 54.016 50.1345C53.3901 49.8663 52.622 49.6225 51.7117 49.403L48.9928 48.7202C46.8877 48.2082 45.2255 47.4075 44.0063 46.3184C42.787 45.2292 42.1815 43.7621 42.1896 41.917C42.1815 40.4052 42.5838 39.0844 43.3966 37.9546C44.2176 36.8248 45.3433 35.9429 46.7739 35.3089C48.2044 34.6749 49.83 34.3579 51.6507 34.3579C53.5039 34.3579 55.1214 34.6749 56.5032 35.3089C57.8931 35.9429 58.9741 36.8248 59.7463 37.9546C60.5185 39.0844 60.9167 40.393 60.9411 41.8805H55.8814Z" fill="#FF6000"/>
<path d="M148.544 26.7618C146.618 26.7618 144.96 26.3716 143.57 25.5913C142.188 24.8029 141.123 23.6893 140.376 22.2507C139.628 20.8039 139.254 19.0929 139.254 17.1178C139.254 15.1914 139.628 13.5008 140.376 12.0459C141.123 10.5909 142.176 9.45707 143.533 8.64426C144.899 7.83145 146.5 7.42505 148.337 7.42505C149.573 7.42505 150.723 7.62419 151.787 8.02246C152.86 8.41261 153.795 9.0019 154.592 9.79032C155.396 10.5787 156.022 11.5704 156.469 12.7652C156.916 13.9519 157.14 15.3418 157.14 16.9349V18.3614H141.327V15.1427H152.251C152.251 14.3949 152.088 13.7324 151.763 13.1553C151.438 12.5783 150.987 12.1271 150.41 11.802C149.841 11.4688 149.178 11.3021 148.422 11.3021C147.634 11.3021 146.935 11.485 146.325 11.8508C145.724 12.2084 145.252 12.692 144.911 13.3017C144.57 13.9031 144.395 14.5737 144.387 15.3134V18.3736C144.387 19.3002 144.557 20.1008 144.899 20.7754C145.248 21.4501 145.74 21.9703 146.374 22.336C147.008 22.7018 147.76 22.8847 148.63 22.8847C149.207 22.8847 149.735 22.8034 150.215 22.6408C150.694 22.4783 151.105 22.2344 151.446 21.9093C151.787 21.5842 152.048 21.1859 152.226 20.7145L157.03 21.0315C156.786 22.1856 156.286 23.1935 155.53 24.0551C154.783 24.9086 153.815 25.5751 152.629 26.0546C151.45 26.526 150.089 26.7618 148.544 26.7618Z" fill="#FF6000"/>
<path d="M138 13.009L133.246 13.3017C133.164 12.8952 132.989 12.5295 132.721 12.2044C132.453 11.8711 132.099 11.6069 131.661 11.4119C131.23 11.2087 130.714 11.1071 130.112 11.1071C129.307 11.1071 128.629 11.2778 128.076 11.6191C127.523 11.9524 127.247 12.3994 127.247 12.9603C127.247 13.4073 127.426 13.7853 127.783 14.0941C128.141 14.403 128.755 14.6509 129.624 14.8379L133.014 15.5206C134.835 15.8945 136.192 16.496 137.086 17.3251C137.98 18.1541 138.427 19.2433 138.427 20.5925C138.427 21.8199 138.065 22.8969 137.342 23.8235C136.627 24.7501 135.643 25.4735 134.392 25.9937C133.148 26.5057 131.713 26.7618 130.088 26.7618C127.609 26.7618 125.634 26.2456 124.162 25.2134C122.699 24.173 121.842 22.7587 121.59 20.9705L126.698 20.7023C126.853 21.4582 127.227 22.0353 127.82 22.4336C128.413 22.8237 129.173 23.0188 130.1 23.0188C131.01 23.0188 131.742 22.844 132.295 22.4945C132.855 22.1369 133.14 21.6776 133.148 21.1168C133.14 20.6454 132.941 20.2593 132.551 19.9586C132.16 19.6497 131.559 19.414 130.746 19.2514L127.503 18.6052C125.674 18.2395 124.313 17.6055 123.419 16.7033C122.533 15.801 122.09 14.6509 122.09 13.2529C122.09 12.0499 122.415 11.0136 123.065 10.1439C123.723 9.27419 124.646 8.60362 125.833 8.13219C127.028 7.66076 128.426 7.42505 130.027 7.42505C132.392 7.42505 134.253 7.92493 135.611 8.92468C136.976 9.92443 137.773 11.2859 138 13.009Z" fill="#FF6000"/>
<path d="M114.754 26.396V7.66885H119.948V26.396H114.754ZM117.363 5.25481C116.591 5.25481 115.928 4.99877 115.375 4.4867C114.831 3.96651 114.559 3.34471 114.559 2.62131C114.559 1.90604 114.831 1.29237 115.375 0.780297C115.928 0.260099 116.591 0 117.363 0C118.135 0 118.793 0.260099 119.338 0.780297C119.891 1.29237 120.167 1.90604 120.167 2.62131C120.167 3.34471 119.891 3.96651 119.338 4.4867C118.793 4.99877 118.135 5.25481 117.363 5.25481Z" fill="#FF6000"/>
<path d="M102.391 26.396V7.66886H107.426V10.9364H107.621C107.962 9.77404 108.535 8.8962 109.34 8.30285C110.145 7.70137 111.071 7.40063 112.12 7.40063C112.38 7.40063 112.66 7.41689 112.961 7.4494C113.262 7.48192 113.526 7.52662 113.754 7.58352V12.1921C113.51 12.119 113.173 12.054 112.742 11.9971C112.311 11.9402 111.917 11.9117 111.559 11.9117C110.795 11.9117 110.112 12.0783 109.511 12.4116C108.917 12.7367 108.446 13.1919 108.097 13.7771C107.755 14.3623 107.584 15.037 107.584 15.801V26.396H102.391Z" fill="#FF6000"/>
<path d="M87.9126 15.5694V26.396H82.7188V7.66889H87.6688V10.973H87.8882C88.3027 9.88379 88.9977 9.02222 89.9731 8.38823C90.9484 7.74611 92.1311 7.42505 93.521 7.42505C94.8215 7.42505 95.9553 7.70953 96.9226 8.2785C97.8898 8.84746 98.6417 9.66027 99.1781 10.7169C99.7146 11.7654 99.9828 13.0172 99.9828 14.4721V26.396H94.789V15.3987C94.7971 14.2526 94.5045 13.3585 93.9111 12.7164C93.3178 12.0662 92.5009 11.7411 91.4605 11.7411C90.7615 11.7411 90.1438 11.8914 89.6073 12.1922C89.079 12.4929 88.6644 12.9318 88.3637 13.5089C88.0711 14.0779 87.9207 14.7647 87.9126 15.5694Z" fill="#FF6000"/>
<path d="M75.0561 18.4224V7.66895H80.25V26.3961H75.2634V22.9944H75.0683C74.6456 24.0917 73.9426 24.9736 72.9591 25.6401C71.9837 26.3066 70.7929 26.6399 69.3868 26.6399C68.1351 26.6399 67.0337 26.3554 66.0827 25.7864C65.1317 25.2175 64.388 24.4087 63.8516 23.3602C63.3232 22.3117 63.055 21.0559 63.0469 19.5928V7.66895H68.2407V18.6662C68.2488 19.7717 68.5455 20.6454 69.1307 21.2876C69.716 21.9297 70.5003 22.2507 71.4838 22.2507C72.1097 22.2507 72.6949 22.1085 73.2395 21.824C73.7841 21.5314 74.223 21.1006 74.5562 20.5316C74.8976 19.9627 75.0642 19.2596 75.0561 18.4224Z" fill="#FF6000"/>
<path d="M55.8814 8.60775C55.7838 7.62425 55.3652 6.86021 54.6256 6.31563C53.8859 5.77104 52.8821 5.49875 51.6141 5.49875C50.7526 5.49875 50.0251 5.62068 49.4317 5.86452C48.8384 6.10023 48.3832 6.42942 48.0662 6.85208C47.7574 7.27474 47.6029 7.7543 47.6029 8.29075C47.5867 8.7378 47.6801 9.12794 47.8833 9.4612C48.0947 9.79445 48.3832 10.083 48.749 10.3268C49.1148 10.5626 49.5374 10.7698 50.017 10.9486C50.4965 11.1193 51.0086 11.2656 51.5532 11.3876L53.7965 11.924C54.8857 12.1678 55.8854 12.493 56.7958 12.8994C57.7061 13.3058 58.4946 13.8057 59.1611 14.399C59.8276 14.9924 60.3437 15.6914 60.7095 16.4961C61.0834 17.3007 61.2744 18.2233 61.2825 19.2637C61.2744 20.7917 60.8842 22.1166 60.112 23.2383C59.348 24.3518 58.2426 25.2175 56.7958 25.8352C55.3571 26.4448 53.6218 26.7496 51.5898 26.7496C49.574 26.7496 47.8183 26.4408 46.3228 25.823C44.8353 25.2053 43.673 24.2909 42.8358 23.0798C42.0067 21.8606 41.5719 20.3528 41.5312 18.5565H46.6398C46.6966 19.3937 46.9364 20.0927 47.3591 20.6536C47.7899 21.2063 48.3629 21.6249 49.0782 21.9094C49.8016 22.1857 50.6184 22.3239 51.5288 22.3239C52.4229 22.3239 53.1991 22.1938 53.8575 21.9337C54.524 21.6736 55.0401 21.3119 55.4059 20.8486C55.7717 20.3853 55.9545 19.8529 55.9545 19.2515C55.9545 18.6906 55.7879 18.2192 55.4547 17.8372C55.1295 17.4552 54.65 17.13 54.016 16.8618C53.3901 16.5936 52.622 16.3497 51.7117 16.1303L48.9928 15.4475C46.8877 14.9355 45.2255 14.1348 44.0063 13.0457C42.787 11.9565 42.1815 10.4894 42.1896 8.64432C42.1815 7.1325 42.5838 5.81169 43.3966 4.68188C44.2176 3.55208 45.3433 2.67018 46.7739 2.03619C48.2044 1.4022 49.83 1.08521 51.6507 1.08521C53.5039 1.08521 55.1214 1.4022 56.5032 2.03619C57.8931 2.67018 58.9741 3.55208 59.7463 4.68188C60.5185 5.81169 60.9167 7.12031 60.9411 8.60775H55.8814Z" fill="#FF6000"/>
</svg>
